# xmcd CD database file
#
# Track frame offsets:
#	150
#	12090
#	23030
#	37772
#	51715
#	62932
#	74795
#	89552
#	104162
#	127547
#	141715
#	153607
#	166512
#	178660
#	193580
#	207042
#
# Disc length: 2880 seconds
#
# Revision: 0
# Processed by: cddbd v1.5.2PL0 Copyright (c) Steve Scherf et al.
# Submitted via: CDex 1.51
#
DISCID=e70b3e10
DTITLE=Ella Fitzgerald - PriceLess Jazz Collection
DYEAR=1900
DGENRE=Jazz
TTITLE0=A-Tisket A-Tasket
TTITLE1=Goody, Goody
TTITLE2=Someone to Watch Over Me
TTITLE3=Makin' Whoopee
TTITLE4=Flying Home
TTITLE5=Nice Work If You Can Get It
TTITLE6=How High the Moon
TTITLE7=But Not For Me
TTITLE8=You'll Have to Swing It Mr. Paganini, Parts 1 and 2
TTITLE9=Oh, Lady Be Good
TTITLE10=My Heart Belongs to Daddy
TTITLE11=Lullaby of Birdland
TTITLE12=It Might As Well Be Spring
TTITLE13=Stairway to the Stars
TTITLE14=Old Devil Moon
TTITLE15=Lover, Come Back to Mek
EXTD=
EXTT0=
EXTT1=
EXTT2=
EXTT3=
EXTT4=
EXTT5=
EXTT6=
EXTT7=
EXTT8=
EXTT9=
EXTT10=
EXTT11=
EXTT12=
EXTT13=
EXTT14=
EXTT15=
PLAYORDER=
